<svg width="50" height="50" viewBox="0 0 50 50" fill="none" xmlns="http://www.w3.org/2000/svg">
<path d="M25 16.6102C28.7202 16.6102 31.7361 13.5943 31.7361 9.87413C31.7361 6.15391 28.7202 3.13806 25 3.13806C21.2798 3.13806 18.2639 6.15391 18.2639 9.87413C18.2639 13.5943 21.2798 16.6102 25 16.6102Z" stroke="white" stroke-width="3" stroke-linecap="round" stroke-linejoin="round"/>
<path d="M36.7882 28.3983C36.7882 25.2719 35.5462 22.2736 33.3355 20.0629C31.1248 17.8522 28.1264 16.6102 25 16.6102C21.8736 16.6102 18.8753 17.8522 16.6646 20.0629C14.4539 22.2736 13.2119 25.2719 13.2119 28.3983V33.4504H18.264L19.948 46.9224H30.0521L31.7361 33.4504H36.7882V28.3983Z" stroke="white" stroke-width="3" stroke-linecap="round" stroke-linejoin="round"/>
</svg>
